<svg xmlns="http://www.w3.org/2000/svg" xmlns:xlink="http://www.w3.org/1999/xlink" width="500" zoomAndPan="magnify" viewBox="0 0 375 374.999991" height="500" preserveAspectRatio="xMidYMid meet" version="1.0"><defs><g/><clipPath id="7f4e8f71bb"><path d="M 187 80 L 311.828125 80 L 311.828125 223.136719 L 187 223.136719 Z M 187 80 " clip-rule="nonzero"/></clipPath><clipPath id="6338116708"><path d="M 132 149 L 188 149 L 188 223.136719 L 132 223.136719 Z M 132 149 " clip-rule="nonzero"/></clipPath><clipPath id="9eca6a30a1"><path d="M 187 70.136719 L 243 70.136719 L 243 144 L 187 144 Z M 187 70.136719 " clip-rule="nonzero"/></clipPath><clipPath id="6d170b2208"><path d="M 62.828125 70.136719 L 188 70.136719 L 188 213 L 62.828125 213 Z M 62.828125 70.136719 " clip-rule="nonzero"/></clipPath><clipPath id="6e6ed976aa"><rect x="0" width="153" y="0" height="86"/></clipPath><clipPath id="cf3555b973"><rect x="0" width="137" y="0" height="21"/></clipPath></defs><rect x="-37.5" width="450" fill="#ffffff" y="-37.499999" height="449.999989" fill-opacity="1"/><rect x="-37.5" width="450" fill="#f9f9f9" y="-37.499999" height="449.999989" fill-opacity="1"/><g clip-path="url(#7f4e8f71bb)"><path fill="#222222" d="M 293.730469 80.328125 L 187.511719 186.550781 L 187.511719 223.164062 L 312.035156 98.636719 L 293.730469 80.328125 " fill-opacity="1" fill-rule="nonzero"/></g><g clip-path="url(#6338116708)"><path fill="#000000" d="M 132.578125 168.230469 L 187.511719 223.164062 L 187.511719 186.550781 L 150.882812 149.925781 L 132.578125 168.230469 " fill-opacity="1" fill-rule="nonzero"/></g><g clip-path="url(#9eca6a30a1)"><path fill="#ff914d" d="M 242.441406 125.0625 L 187.511719 70.132812 L 187.511719 106.746094 L 224.136719 143.371094 L 242.441406 125.0625 " fill-opacity="1" fill-rule="nonzero"/></g><g clip-path="url(#6d170b2208)"><path fill="#ff6100" d="M 62.980469 194.660156 L 81.289062 212.96875 L 187.511719 106.746094 L 187.511719 70.132812 L 62.980469 194.660156 " fill-opacity="1" fill-rule="nonzero"/></g><path fill="#000000" d="M 186.191406 145.234375 L 176.820312 145.234375 L 176.820312 135.863281 L 186.191406 135.863281 L 186.191406 145.234375 " fill-opacity="1" fill-rule="nonzero"/><path fill="#000000" d="M 198.199219 145.234375 L 188.828125 145.234375 L 188.828125 135.863281 L 198.199219 135.863281 L 198.199219 145.234375 " fill-opacity="1" fill-rule="nonzero"/><path fill="#000000" d="M 186.191406 157.433594 L 176.820312 157.433594 L 176.820312 148.0625 L 186.191406 148.0625 L 186.191406 157.433594 " fill-opacity="1" fill-rule="nonzero"/><path fill="#000000" d="M 198.199219 157.433594 L 188.828125 157.433594 L 188.828125 148.0625 L 198.199219 148.0625 L 198.199219 157.433594 " fill-opacity="1" fill-rule="nonzero"/><g transform="matrix(1, 0, 0, 1, 112, 215)"><g clip-path="url(#6e6ed976aa)"><g fill="#ff6100" fill-opacity="1"><g transform="translate(1.256785, 62.767432)"><g><path d="M 4.921875 0 L 4.921875 -40.984375 L 22.421875 -40.984375 C 25.546875 -40.984375 28.257812 -40.414062 30.5625 -39.28125 C 32.863281 -38.15625 34.640625 -36.535156 35.890625 -34.421875 C 37.140625 -32.316406 37.765625 -29.800781 37.765625 -26.875 C 37.765625 -23.863281 37.082031 -21.273438 35.71875 -19.109375 C 34.351562 -16.941406 32.4375 -15.316406 29.96875 -14.234375 L 38.46875 0 L 27.6875 0 L 20.375 -12.765625 L 14.234375 -12.765625 L 14.234375 0 Z M 14.109375 -20.609375 L 21.1875 -20.609375 C 23.488281 -20.609375 25.253906 -21.144531 26.484375 -22.21875 C 27.722656 -23.289062 28.34375 -24.820312 28.34375 -26.8125 C 28.34375 -28.800781 27.722656 -30.332031 26.484375 -31.40625 C 25.253906 -32.476562 23.488281 -33.015625 21.1875 -33.015625 L 14.109375 -33.015625 Z M 14.109375 -20.609375 "/></g></g></g><g fill="#ff6100" fill-opacity="1"><g transform="translate(45.459128, 62.767432)"><g><path d="M 4.921875 0 L 4.921875 -40.984375 L 23.25 -40.984375 C 27.414062 -40.984375 30.726562 -39.988281 33.1875 -38 C 35.65625 -36.007812 36.890625 -33.332031 36.890625 -29.96875 C 36.890625 -28.0625 36.457031 -26.328125 35.59375 -24.765625 C 34.738281 -23.203125 33.53125 -21.972656 31.96875 -21.078125 C 33.914062 -20.210938 35.425781 -18.941406 36.5 -17.265625 C 37.570312 -15.585938 38.109375 -13.65625 38.109375 -11.46875 C 38.109375 -9.164062 37.519531 -7.15625 36.34375 -5.4375 C 35.175781 -3.726562 33.550781 -2.394531 31.46875 -1.4375 C 29.382812 -0.476562 26.957031 0 24.1875 0 Z M 14.109375 -7.375 L 22.78125 -7.375 C 24.613281 -7.375 26.035156 -7.800781 27.046875 -8.65625 C 28.066406 -9.519531 28.578125 -10.734375 28.578125 -12.296875 C 28.578125 -13.859375 28.066406 -15.066406 27.046875 -15.921875 C 26.035156 -16.785156 24.613281 -17.21875 22.78125 -17.21875 L 14.109375 -17.21875 Z M 14.109375 -24.296875 L 21.84375 -24.296875 C 23.632812 -24.296875 25.007812 -24.703125 25.96875 -25.515625 C 26.925781 -26.335938 27.40625 -27.492188 27.40625 -28.984375 C 27.40625 -30.460938 26.925781 -31.601562 25.96875 -32.40625 C 25.007812 -33.207031 23.632812 -33.609375 21.84375 -33.609375 L 14.109375 -33.609375 Z M 14.109375 -24.296875 "/></g></g></g><g fill="#ff6100" fill-opacity="1"><g transform="translate(88.783294, 62.767432)"><g><path d="M 14.75 0 L 14.75 -32.265625 L 1.75 -32.265625 L 1.75 -40.984375 L 37.0625 -40.984375 L 37.0625 -32.265625 L 24.0625 -32.265625 L 24.0625 0 Z M 14.75 0 "/></g></g></g><g fill="#ff6100" fill-opacity="1"><g transform="translate(130.585269, 62.767432)"><g><path d="M 4.921875 0 L 4.921875 -40.984375 L 14.234375 -40.984375 L 14.234375 0 Z M 4.921875 0 "/></g></g></g></g></g><g transform="matrix(1, 0, 0, 1, 123, 285)"><g clip-path="url(#cf3555b973)"><g fill="#000000" fill-opacity="1"><g transform="translate(0.482553, 15.989598)"><g><path d="M 2.953125 -1.203125 L 6.5625 -1.203125 L 6.5625 0 L 1.625 0 L 1.625 -10.390625 L 2.953125 -10.390625 Z M 2.953125 -1.203125 "/></g></g></g><g fill="#000000" fill-opacity="1"><g transform="translate(14.851766, 15.989598)"><g><path d="M 6.078125 0.140625 C 5.347656 0.140625 4.664062 0.0195312 4.03125 -0.21875 C 3.40625 -0.46875 2.859375 -0.820312 2.390625 -1.28125 C 1.921875 -1.75 1.554688 -2.3125 1.296875 -2.96875 C 1.035156 -3.625 0.90625 -4.367188 0.90625 -5.203125 C 0.90625 -6.023438 1.035156 -6.765625 1.296875 -7.421875 C 1.554688 -8.085938 1.921875 -8.648438 2.390625 -9.109375 C 2.859375 -9.566406 3.40625 -9.914062 4.03125 -10.15625 C 4.664062 -10.40625 5.347656 -10.53125 6.078125 -10.53125 C 6.796875 -10.53125 7.46875 -10.40625 8.09375 -10.15625 C 8.726562 -9.914062 9.28125 -9.566406 9.75 -9.109375 C 10.21875 -8.648438 10.582031 -8.085938 10.84375 -7.421875 C 11.101562 -6.765625 11.234375 -6.023438 11.234375 -5.203125 C 11.234375 -4.367188 11.101562 -3.625 10.84375 -2.96875 C 10.582031 -2.3125 10.21875 -1.75 9.75 -1.28125 C 9.28125 -0.820312 8.726562 -0.46875 8.09375 -0.21875 C 7.46875 0.0195312 6.796875 0.140625 6.078125 0.140625 Z M 6.078125 -1.109375 C 6.617188 -1.109375 7.117188 -1.195312 7.578125 -1.375 C 8.046875 -1.550781 8.453125 -1.8125 8.796875 -2.15625 C 9.148438 -2.507812 9.425781 -2.941406 9.625 -3.453125 C 9.820312 -3.960938 9.921875 -4.546875 9.921875 -5.203125 C 9.921875 -5.847656 9.820312 -6.421875 9.625 -6.921875 C 9.425781 -7.429688 9.148438 -7.859375 8.796875 -8.203125 C 8.453125 -8.554688 8.046875 -8.820312 7.578125 -9 C 7.117188 -9.175781 6.617188 -9.265625 6.078125 -9.265625 C 5.546875 -9.265625 5.046875 -9.175781 4.578125 -9 C 4.109375 -8.820312 3.695312 -8.554688 3.34375 -8.203125 C 2.988281 -7.859375 2.710938 -7.429688 2.515625 -6.921875 C 2.316406 -6.421875 2.21875 -5.847656 2.21875 -5.203125 C 2.21875 -4.546875 2.316406 -3.960938 2.515625 -3.453125 C 2.710938 -2.941406 2.988281 -2.507812 3.34375 -2.15625 C 3.695312 -1.8125 4.109375 -1.550781 4.578125 -1.375 C 5.046875 -1.195312 5.546875 -1.109375 6.078125 -1.109375 Z M 6.078125 -1.109375 "/></g></g></g><g fill="#000000" fill-opacity="1"><g transform="translate(34.385597, 15.989598)"><g><path d="M 6.078125 0.140625 C 5.347656 0.140625 4.664062 0.0195312 4.03125 -0.21875 C 3.40625 -0.46875 2.859375 -0.820312 2.390625 -1.28125 C 1.921875 -1.75 1.554688 -2.3125 1.296875 -2.96875 C 1.035156 -3.625 0.90625 -4.367188 0.90625 -5.203125 C 0.90625 -6.023438 1.035156 -6.765625 1.296875 -7.421875 C 1.554688 -8.085938 1.921875 -8.648438 2.390625 -9.109375 C 2.859375 -9.566406 3.40625 -9.914062 4.03125 -10.15625 C 4.664062 -10.40625 5.347656 -10.53125 6.078125 -10.53125 C 6.765625 -10.53125 7.40625 -10.421875 8 -10.203125 C 8.59375 -9.984375 9.117188 -9.664062 9.578125 -9.25 C 10.035156 -8.84375 10.398438 -8.347656 10.671875 -7.765625 L 9.453125 -7.265625 C 9.242188 -7.691406 8.96875 -8.050781 8.625 -8.34375 C 8.28125 -8.644531 7.894531 -8.875 7.46875 -9.03125 C 7.039062 -9.1875 6.578125 -9.265625 6.078125 -9.265625 C 5.546875 -9.265625 5.046875 -9.175781 4.578125 -9 C 4.109375 -8.820312 3.695312 -8.554688 3.34375 -8.203125 C 2.988281 -7.859375 2.710938 -7.429688 2.515625 -6.921875 C 2.316406 -6.421875 2.21875 -5.847656 2.21875 -5.203125 C 2.21875 -4.554688 2.316406 -3.976562 2.515625 -3.46875 C 2.710938 -2.957031 2.988281 -2.523438 3.34375 -2.171875 C 3.695312 -1.828125 4.109375 -1.566406 4.578125 -1.390625 C 5.046875 -1.210938 5.546875 -1.125 6.078125 -1.125 C 6.578125 -1.125 7.039062 -1.195312 7.46875 -1.34375 C 7.894531 -1.5 8.28125 -1.722656 8.625 -2.015625 C 8.96875 -2.316406 9.242188 -2.679688 9.453125 -3.109375 L 10.671875 -2.625 C 10.398438 -2.039062 10.035156 -1.539062 9.578125 -1.125 C 9.117188 -0.71875 8.59375 -0.40625 8 -0.1875 C 7.40625 0.03125 6.765625 0.140625 6.078125 0.140625 Z M 6.078125 0.140625 "/></g></g></g><g fill="#000000" fill-opacity="1"><g transform="translate(53.078334, 15.989598)"><g><path d="M 8.296875 0 L 7.40625 -2.484375 L 2.703125 -2.484375 L 1.828125 0 L 0.4375 0 L 4.265625 -10.390625 L 5.84375 -10.390625 L 9.671875 0 Z M 3.125 -3.65625 L 7 -3.65625 L 5.0625 -9.0625 Z M 3.125 -3.65625 "/></g></g></g><g fill="#000000" fill-opacity="1"><g transform="translate(70.590586, 15.989598)"><g><path d="M 7.0625 -10.390625 L 7.0625 -9.1875 L 4.390625 -9.1875 L 4.390625 0 L 3.078125 0 L 3.078125 -9.1875 L 0.40625 -9.1875 L 0.40625 -10.390625 Z M 7.0625 -10.390625 "/></g></g></g><g fill="#000000" fill-opacity="1"><g transform="translate(85.454129, 15.989598)"><g><path d="M 1.625 0 L 1.625 -10.390625 L 2.953125 -10.390625 L 2.953125 0 Z M 1.625 0 "/></g></g></g><g fill="#000000" fill-opacity="1"><g transform="translate(97.425486, 15.989598)"><g><path d="M 6.078125 0.140625 C 5.347656 0.140625 4.664062 0.0195312 4.03125 -0.21875 C 3.40625 -0.46875 2.859375 -0.820312 2.390625 -1.28125 C 1.921875 -1.75 1.554688 -2.3125 1.296875 -2.96875 C 1.035156 -3.625 0.90625 -4.367188 0.90625 -5.203125 C 0.90625 -6.023438 1.035156 -6.765625 1.296875 -7.421875 C 1.554688 -8.085938 1.921875 -8.648438 2.390625 -9.109375 C 2.859375 -9.566406 3.40625 -9.914062 4.03125 -10.15625 C 4.664062 -10.40625 5.347656 -10.53125 6.078125 -10.53125 C 6.796875 -10.53125 7.46875 -10.40625 8.09375 -10.15625 C 8.726562 -9.914062 9.28125 -9.566406 9.75 -9.109375 C 10.21875 -8.648438 10.582031 -8.085938 10.84375 -7.421875 C 11.101562 -6.765625 11.234375 -6.023438 11.234375 -5.203125 C 11.234375 -4.367188 11.101562 -3.625 10.84375 -2.96875 C 10.582031 -2.3125 10.21875 -1.75 9.75 -1.28125 C 9.28125 -0.820312 8.726562 -0.46875 8.09375 -0.21875 C 7.46875 0.0195312 6.796875 0.140625 6.078125 0.140625 Z M 6.078125 -1.109375 C 6.617188 -1.109375 7.117188 -1.195312 7.578125 -1.375 C 8.046875 -1.550781 8.453125 -1.8125 8.796875 -2.15625 C 9.148438 -2.507812 9.425781 -2.941406 9.625 -3.453125 C 9.820312 -3.960938 9.921875 -4.546875 9.921875 -5.203125 C 9.921875 -5.847656 9.820312 -6.421875 9.625 -6.921875 C 9.425781 -7.429688 9.148438 -7.859375 8.796875 -8.203125 C 8.453125 -8.554688 8.046875 -8.820312 7.578125 -9 C 7.117188 -9.175781 6.617188 -9.265625 6.078125 -9.265625 C 5.546875 -9.265625 5.046875 -9.175781 4.578125 -9 C 4.109375 -8.820312 3.695312 -8.554688 3.34375 -8.203125 C 2.988281 -7.859375 2.710938 -7.429688 2.515625 -6.921875 C 2.316406 -6.421875 2.21875 -5.847656 2.21875 -5.203125 C 2.21875 -4.546875 2.316406 -3.960938 2.515625 -3.453125 C 2.710938 -2.941406 2.988281 -2.507812 3.34375 -2.15625 C 3.695312 -1.8125 4.109375 -1.550781 4.578125 -1.375 C 5.046875 -1.195312 5.546875 -1.109375 6.078125 -1.109375 Z M 6.078125 -1.109375 "/></g></g></g><g fill="#000000" fill-opacity="1"><g transform="translate(116.959318, 15.989598)"><g><path d="M 8.609375 -10.390625 L 9.921875 -10.390625 L 9.921875 0 L 8.53125 0 L 2.921875 -8.40625 L 2.921875 0 L 1.625 0 L 1.625 -10.390625 L 3.015625 -10.390625 L 8.609375 -2.015625 Z M 8.609375 -10.390625 "/></g></g></g></g></g></svg>